<?xml version="1.0" encoding="UTF-8"?>
<svg version="1.1" xmlns="http://www.w3.org/2000/svg" width="347" height="82">
<path d="M0 0 C114.51 0 229.02 0 347 0 C347 27.06 347 54.12 347 82 C232.49 82 117.98 82 0 82 C0 54.94 0 27.88 0 0 Z " fill="#FCFCFE" transform="translate(0,0)"/>
<path d="M0 0 C6.07480755 4.92615972 10.5109069 10.08421651 11.375 18.04296875 C11.51824786 26.17439116 11.24715013 32.99828379 6.00390625 39.625 C-0.04902263 45.51169335 -4.66097367 48.70318181 -13.12109375 48.9375 C-21.45403365 48.80435049 -27.58772639 46.52721726 -33.43359375 40.5 C-38.51532975 34.23765866 -40.71417426 26.98201947 -40.4140625 18.921875 C-38.86714002 10.42102996 -33.71111093 4.35440038 -26.93359375 -0.625 C-18.8959041 -5.41341086 -7.80265973 -5.05807776 0 0 Z " fill="#373A97" transform="translate(330.99609375,22.375)"/>
<path d="M0 0 C-0.8285464 4.82444742 -3.51325936 6.73581727 -7 10 C-10.3 9.01 -13.6 8.02 -17 7 C-17 15.58 -17 24.16 -17 33 C-14.69 32.01 -12.38 31.02 -10 30 C-6.67819629 30.19744987 -5.0455343 31.54468488 -2.75 33.875 C-1.96882813 34.64457031 -1.96882813 34.64457031 -1.171875 35.4296875 C0 37 0 37 0 40 C-7.71274166 45.91908081 -14.46001019 46.9135263 -24 46 C-31.01753475 44.07565139 -36.76143254 38.92904909 -40.32421875 32.67578125 C-43.53855572 25.49145615 -44.3376729 18.4252307 -41.875 10.875 C-38.66508844 3.46520417 -34.32778742 -1.60750583 -27 -5 C-17.01351755 -8.06004017 -8.42207695 -5.61471797 0 0 Z " fill="#373996" transform="translate(145,25)"/>
<path d="M0 0 C4.33125 -0.061875 8.6625 -0.12375 13.125 -0.1875 C14.47996582 -0.21481201 15.83493164 -0.24212402 17.23095703 -0.27026367 C18.85300049 -0.28150269 18.85300049 -0.28150269 20.5078125 -0.29296875 C21.60754395 -0.3086792 22.70727539 -0.32438965 23.84033203 -0.34057617 C28.10305826 0.1188971 31.43557784 1.60651233 34.64453125 4.46484375 C38.5705797 9.41507875 39.36783225 12.63813065 39.28515625 18.96875 C38.80778584 22.36919675 37.19290382 24.44161221 35 27 C32.75 28.375 32.75 28.375 31 29 C31 29.66 31 30.32 31 31 C27.81453711 32.59273144 24.36800652 32.10141833 20.875 32.0625 C18.27625 32.041875 15.6775 32.02125 13 32 C13 38.6 13 45.2 13 52 C8.71 52 4.42 52 0 52 C0 34.84 0 17.68 0 0 Z " fill="#0CB0EF" transform="translate(246,19)"/>
<path d="M0 0 C4.29 0 8.58 0 13 0 C13 6.27 13 12.54 13 19 C21.58 19 30.16 19 39 19 C39 23.29 39 27.58 39 32 C30.42 32 21.84 32 13 32 C13 38.6 13 45.2 13 52 C8.71 52 4.42 52 0 52 C0 34.84 0 17.68 0 0 Z " fill="#20B2ED" transform="translate(153,19)"/>
<path d="M0 0 C0.98613281 0.00322266 1.97226563 0.00644531 2.98828125 0.00976562 C4.02082031 0.01814453 5.05335938 0.02652344 6.1171875 0.03515625 C7.67759766 0.04192383 7.67759766 0.04192383 9.26953125 0.04882812 C11.84377437 0.06063658 14.41798803 0.0785724 16.9921875 0.09765625 C16.9921875 4.38765625 16.9921875 8.67765625 16.9921875 13.09765625 C15.65542969 13.11183594 14.31867188 13.12601563 12.94140625 13.140625 C11.1874653 13.18752182 9.4335601 13.23576922 7.6796875 13.28515625 C6.79861328 13.29095703 5.91753906 13.29675781 5.00976562 13.30273438 C3.73842773 13.34624023 3.73842773 13.34624023 2.44140625 13.390625 C1.27097778 13.41419067 1.27097778 13.41419067 0.0769043 13.43823242 C-2.74689595 14.07825669 -2.74689595 14.07825669 -5.0078125 19.09765625 C3.5721875 19.09765625 12.1521875 19.09765625 20.9921875 19.09765625 C20.9921875 24.04765625 20.9921875 28.99765625 20.9921875 34.09765625 C20.6621875 33.43765625 20.3321875 32.77765625 19.9921875 32.09765625 C7.4521875 32.09765625 -5.0878125 32.09765625 -18.0078125 32.09765625 C-18.0078125 11.93686565 -18.0078125 11.93686565 -14.51171875 7.57421875 C-9.91227923 3.0584054 -6.65517005 -0.0382481 0 0 Z " fill="#3A3B97" transform="translate(218.0078125,18.90234375)"/>
<path d="M0 0 C6.51255837 -0.69282536 10.74916214 1.14753342 16 5 C21.14020809 9.83784291 24.59239622 14.2457547 25.37109375 21.41796875 C25.54114765 31.07102841 24.61900373 38.07851284 17.79296875 45.3515625 C11.98966532 50.52427075 7.73334762 52 0 52 C0 47.71 0 43.42 0 39 C1.98 38.34 3.96 37.68 6 37 C9.55330881 33.89401985 11.8595499 30.46068104 12.3125 25.75 C11.9449614 21.33953679 10.76719254 19.39969369 8 16 C4.88214887 13.64644661 4.88214887 13.64644661 0 13 C0 8.71 0 4.42 0 0 Z " fill="#ED0F92" transform="translate(317,19)"/>
<path d="M0 0 C4.29 0 8.58 0 13 0 C13 17.16 13 34.32 13 52 C8.71 52 4.42 52 0 52 C0 34.84 0 17.68 0 0 Z " fill="#343594" transform="translate(246,19)"/>
<path d="M0 0 C15.18 0 30.36 0 46 0 C46 4.62 46 9.24 46 14 C30.82 14 15.64 14 0 14 C0 9.38 0 4.76 0 0 Z " fill="#424C9D" transform="translate(49,38)"/>
<path d="M0 0 C15.18 0 30.36 0 46 0 C46 4.29 46 8.58 46 13 C30.82 13 15.64 13 0 13 C0 8.71 0 4.42 0 0 Z " fill="#ED1995" transform="translate(49,19)"/>
<path d="M0 0 C12.54 0 25.08 0 38 0 C36.86723164 10.19491525 36.86723164 10.19491525 33.875 13.375 C33.31554687 14.00148438 32.75609375 14.62796875 32.1796875 15.2734375 C25.51323956 20.55402888 19.25736271 20.38588588 11.0625 20.1875 C9.99708984 20.17396484 8.93167969 20.16042969 7.83398438 20.14648438 C5.22243609 20.11135144 2.61115043 20.05755189 0 20 C0 15.71 0 11.42 0 7 C2.22169922 6.92652344 2.22169922 6.92652344 4.48828125 6.8515625 C6.4297065 6.77653157 8.37111182 6.70098388 10.3125 6.625 C11.28896484 6.5940625 12.26542969 6.563125 13.27148438 6.53125 C14.67817383 6.47324219 14.67817383 6.47324219 16.11328125 6.4140625 C16.97735596 6.3826416 17.84143066 6.3512207 18.73168945 6.31884766 C21.27742445 6.12811963 21.27742445 6.12811963 24 4 C24.33 3.01 24.66 2.02 25 1 C16.75 1 8.5 1 0 1 C0 0.67 0 0.34 0 0 Z " fill="#18B1EE" transform="translate(200,51)"/>
<path d="M0 0 C3.20083553 1.64614399 5.24803524 3.97459352 7.375 6.875 C8.32425152 10.10245516 8.3465354 12.65015781 8 16 C5.8684855 19.88240141 3.42574776 23.18620718 0 26 C-4.65062708 26.62690709 -9.92887895 26.4619678 -13.859375 23.6875 C-16.75759378 20.27783085 -17.89724981 17.08915198 -18.3125 12.6875 C-17.88361804 7.62669283 -15.92018086 4.7159063 -12.1640625 1.359375 C-8.33973723 -1.04290874 -4.35166726 -0.74129348 0 0 Z " fill="#0EAFED" transform="translate(322,32)"/>
<path d="M0 0 C14.52 0 29.04 0 44 0 C44 3.96 44 7.92 44 12 C29.48 12 14.96 12 0 12 C0 8.04 0 4.08 0 0 Z " fill="#0BB1F0" transform="translate(50,58)"/>
<path d="M0 0 C12.54 0 25.08 0 38 0 C38 3.96 38 7.92 38 12 C25.33864809 13.28216222 12.71328937 13.0891813 0 13 C0 8.71 0 4.42 0 0 Z " fill="#313A97" transform="translate(3,19)"/>
<path d="M0 0 C0.98613281 0.00322266 1.97226563 0.00644531 2.98828125 0.00976562 C4.02082031 0.01814453 5.05335938 0.02652344 6.1171875 0.03515625 C7.67759766 0.04192383 7.67759766 0.04192383 9.26953125 0.04882812 C11.84377437 0.06063658 14.41798803 0.0785724 16.9921875 0.09765625 C16.9921875 4.38765625 16.9921875 8.67765625 16.9921875 13.09765625 C15.65542969 13.11183594 14.31867188 13.12601563 12.94140625 13.140625 C11.1874653 13.18752182 9.4335601 13.23576922 7.6796875 13.28515625 C6.79861328 13.29095703 5.91753906 13.29675781 5.00976562 13.30273438 C2.57043855 13.38620945 0.36028247 13.50036398 -2.0078125 14.09765625 C-3.71578475 16.56894256 -3.71578475 16.56894256 -5.0078125 19.09765625 C-8.14453125 19.5859375 -8.14453125 19.5859375 -11.6953125 19.41015625 C-13.46455078 19.34248047 -13.46455078 19.34248047 -15.26953125 19.2734375 C-16.17316406 19.21542969 -17.07679688 19.15742187 -18.0078125 19.09765625 C-17.44805071 12.10063389 -15.18707229 7.81128502 -9.8828125 3.28515625 C-6.14764405 0.44318025 -4.59881928 -0.02643 0 0 Z " fill="#ED1192" transform="translate(218.0078125,18.90234375)"/>
<path d="M0 0 C3.96 0 7.92 0 12 0 C12 12.54 12 25.08 12 38 C8.04 38 4.08 38 0 38 C0 25.46 0 12.92 0 0 Z " fill="#08B0EF" transform="translate(16,32)"/>
<path d="M0 0 C8.58 0 17.16 0 26 0 C26 4.29 26 8.58 26 13 C17.42 13 8.84 13 0 13 C0 8.71 0 4.42 0 0 Z " fill="#323796" transform="translate(166,38)"/>
<path d="M0 0 C0.33 0 0.66 0 1 0 C1 10.56 1 21.12 1 32 C4.96 32 8.92 32 13 32 C13 38.6 13 45.2 13 52 C8.71 52 4.42 52 0 52 C0 34.84 0 17.68 0 0 Z " fill="#DF2397" transform="translate(246,19)"/>
<path d="M0 0 C0 8.58 0 17.16 0 26 C-7 25 -7 25 -8.7421875 23.66015625 C-12.66683058 18.12505619 -13.8301486 14.76627966 -13 8 C-11.34828367 4.75555721 -10.02631764 2.72835445 -7.0625 0.625 C-5 0 -5 0 0 0 Z " fill="#15B0EE" transform="translate(128,32)"/>
<path d="M0 0 C7 1 7 1 8.7421875 2.33984375 C12.29278111 7.34740508 13.52016292 9.75804497 13 16 C10.89022317 19.8428078 8.45829025 23.27528647 5 26 C3.35 26 1.7 26 0 26 C0 17.42 0 8.84 0 0 Z " fill="#FEF5FA" transform="translate(317,32)"/>
<path d="M0 0 C4.29 0 8.58 0 13 0 C13 6.6 13 13.2 13 20 C8.71 20 4.42 20 0 20 C0 13.4 0 6.8 0 0 Z " fill="#0DAFEE" transform="translate(179,51)"/>
<path d="M0 0 C4.29 0 8.58 0 13 0 C13 6.27 13 12.54 13 19 C8.71 19 4.42 19 0 19 C0 12.73 0 6.46 0 0 Z " fill="#0AB1F0" transform="translate(179,19)"/>
<path d="M0 0 C3.96 0 7.92 0 12 0 C12 6.27 12 12.54 12 19 C8.04 19 4.08 19 0 19 C0 12.73 0 6.46 0 0 Z " fill="#08ADED" transform="translate(154,51)"/>
<path d="M0 0 C1.703125 1.3046875 1.703125 1.3046875 3.25 2.875 C3.77078125 3.38804688 4.2915625 3.90109375 4.828125 4.4296875 C6 6 6 6 6 9 C0.13846537 13.49838704 -4.44780531 15.27378171 -11.8125 15.125 C-12.97394531 15.10695313 -14.13539062 15.08890625 -15.33203125 15.0703125 C-16.21246094 15.04710938 -17.09289062 15.02390625 -18 15 C-18 14.67 -18 14.34 -18 14 C-15.69 14 -13.38 14 -11 14 C-11 10.04 -11 6.08 -11 2 C-3.77271931 -1.47465418 -3.77271931 -1.47465418 0 0 Z " fill="#EA1995" transform="translate(139,56)"/>
<path d="M0 0 C5.80770027 0.41483573 11.29541375 1.30437739 16 5 C16.9375 6.90234375 16.9375 6.90234375 17 9 C14.97777644 11.71099181 12.51208251 13.70827561 10 16 C6.7 15.01 3.4 14.02 0 13 C0 8.71 0 4.42 0 0 Z " fill="#ED1192" transform="translate(128,19)"/>
<path d="M0 0 C4.29 0 8.58 0 13 0 C13 4.29 13 8.58 13 13 C8.71 13 4.42 13 0 13 C0 8.71 0 4.42 0 0 Z " fill="#EC1192" transform="translate(166,38)"/>
<path d="M0 0 C4.29 0 8.58 0 13 0 C13 4.29 13 8.58 13 13 C8.71 13 4.42 13 0 13 C0 8.71 0 4.42 0 0 Z " fill="#E91593" transform="translate(3,19)"/>
<path d="M0 0 C3.96 0 7.92 0 12 0 C12 4.29 12 8.58 12 13 C8.04 13 4.08 13 0 13 C0 8.71 0 4.42 0 0 Z " fill="#313997" transform="translate(154,38)"/>
<path d="M0 0 C4.29 0 8.58 0 13 0 C13 3.96 13 7.92 13 12 C8.71 12 4.42 12 0 12 C0 8.04 0 4.08 0 0 Z " fill="#E70D90" transform="translate(28,19)"/>
</svg>
